<?xml version="1.0" standalone="no"?><!DOCTYPE svg PUBLIC "-//W3C//DTD SVG 1.1//EN" "http://www.w3.org/Graphics/SVG/1.1/DTD/svg11.dtd"><svg t="1608865441989" class="icon" viewBox="0 0 1024 1024" version="1.1" xmlns="http://www.w3.org/2000/svg" p-id="1451" xmlns:xlink="http://www.w3.org/1999/xlink" width="200" height="200"><defs><style type="text/css"></style></defs><path d="M317.537981 58.288616c19.596173 9.698106 48.390549 22.995509 86.883031 22.995508 28.094513 0 57.488772-7.298574 87.182972-21.795743 0.299941-0.199961 1.199766-0.199961 1.599687-0.199961 10.49795 0 30.394064 9.798086 46.49092 17.596563 25.994923 12.69752 52.88967 25.794962 82.983792 25.794962 14.497169 0 28.194493-3.199375 40.692052-9.398164 21.395821-10.697911 34.593244-14.697129 42.19176-16.096856-4.19918 8.798282-12.197618 20.795938-23.495411 30.993946C661.970709 126.375317 600.582699 223.956259 511.500098 223.956259c-80.884202 0-156.969342-75.785198-185.263816-123.775825-9.598125-16.496778-10.797891-31.493849-8.698301-41.891818m193.962117 250.351103c212.858426 0 395.322789 276.446007 395.322788 502.801796 0 103.57977-32.593634 124.375708-68.986526 137.873072-62.687756 23.395431-173.266159 23.395431-326.336262 23.395431-151.570396 0-261.148994 0-324.536614-23.395431-37.292716-13.797305-70.686194-34.693224-70.686194-137.873072 0-226.255809 182.364382-502.801797 395.222808-502.801796M306.340168 0.09998c-5.298965 0-10.297989 1.699668-15.197032 5.798868-27.394649 22.995509-36.592853 73.085725-8.898262 120.176528 36.792814 62.587776 127.675063 149.070885 229.355204 149.070884s172.066393-99.280609 204.859988-128.774848C750.253466 115.977348 779.947666 59.18844 744.254638 35.193126c-8.198399-5.498926-17.796524-9.798086-31.893771-9.798086-16.396798 0-38.692443 5.798867-71.685999 22.195665-5.598906 2.799453-11.597735 3.999219-17.896504 3.999219-37.792619 0-86.283148-43.391525-129.474712-43.391525-8.198399 0-16.296817 1.599688-23.995314 5.298965-25.095099 12.197618-46.49092 16.596758-64.887326 16.596758-47.890646 0-75.585237-29.994142-98.080844-29.994142z m205.15993 257.349737C264.54833 257.449717 65.087288 564.589729 65.087288 811.541496c0 212.358524 129.07479 212.458504 446.41281 212.458504 322.537004 0 446.51279 0 446.51279-212.458504 0-246.951767-199.561023-554.091779-446.51279-554.091779z" fill="#36A3F7" p-id="1452"></path><path d="M644.674087 640.574888H378.426089v51.190002h266.247998v-51.190002z" fill="#36A3F7" p-id="1453"></path><path d="M655.371998 485.805116h-71.086116l-80.584261 164.667839h32.593634l119.076743-164.667839z" fill="#36A3F7" p-id="1454"></path><path d="M438.814294 485.805116h-71.086116l119.076743 164.667839h32.593634l-80.584261-164.667839zM644.674087 749.553603H378.426089v51.190002h266.247998v-51.190002z" fill="#36A3F7" p-id="1455"></path><path d="M537.095099 640.574888h-51.190002v255.950009h51.190002v-255.950009z" fill="#36A3F7" p-id="1456"></path><path d="M840.335872 405.420816C824.938879 372.727202 685.46612 281.145089 616.979496 258.949424c-3.699277 0.899824-5.798867 1.599688-5.998828 1.599688l-2.09959 0.499902c-2.09959 0.299941-26.994728 4.099199-63.987503 3.799258-10.49795 2.699473-22.095684 5.698887-34.193321 8.898262-66.886936 17.496583-150.17067 39.392306-187.663347 41.191955-17.796524 0.699863-32.893575-7.898457-40.09217-23.295451-9.498145-20.096075-3.999219-47.390744 13.197423-66.387033 10.997852-12.097637 43.091584-37.692638 104.379613-15.596954 51.389963 18.596368 102.979887 23.695372 141.272408 24.295255 16.296817-4.19918 29.994142-7.498535 39.792228-9.498145 8.298379-1.699668 19.796134-0.299941 33.393478 3.299356 32.393673-7.498535 116.777192-21.395821 170.166764 22.895528 55.689123 46.190978 110.978325 48.790471 127.775044 42.791642l10.297989 28.894357c-26.894747 9.598125-93.581722 5.099004-157.669206-48.090608-25.195079-20.895919-61.188049-25.095099-92.181995-23.695372 79.984378 38.292521 178.565124 107.678969 194.561999 141.67233l-27.59461 13.197422zM355.130639 231.654755c-15.097051 0-27.49463 4.799063-36.192932 14.297208-10.098028 10.997852-11.697715 25.095099-8.098418 32.593634 1.299746 2.799453 3.699277 6.098809 10.897872 5.698886 26.094903-1.199766 81.684046-14.497169 134.173794-27.894551-21.19586-3.999219-43.391525-9.698106-65.687171-17.796524-12.7975-4.599102-24.595196-6.898653-35.093145-6.898653z" fill="#36A3F7" p-id="1457"></path><path d="M918.22066 307.639914m-40.991994 0a40.991994 40.991994 0 1 0 81.983988 0 40.991994 40.991994 0 1 0-81.983988 0Z" fill="#36A3F7" p-id="1458"></path><path d="M851.433704 398.822105m-40.991993 0a40.991994 40.991994 0 1 0 81.983987 0 40.991994 40.991994 0 1 0-81.983987 0Z" fill="#36A3F7" p-id="1459"></path></svg>